<svg width="28" height="24" viewBox="0 0 28 24" fill="none" xmlns="http://www.w3.org/2000/svg">
<path d="M1.2807 8.3701C1.2807 8.3701 5.60899 16.2602 14.0007 16.2602C22.3924 16.2602 26.7207 8.3701 26.7207 8.3701C26.7207 8.3701 22.3924 0.47998 14.0007 0.47998C5.60899 0.47998 1.2807 8.3701 1.2807 8.3701Z" stroke="#000042" stroke-width="0.056358" stroke-miterlimit="10"/>
<path d="M1.2807 8.3701C1.2807 8.3701 5.60899 16.2602 14.0007 16.2602C22.3924 16.2602 26.7207 8.3701 26.7207 8.3701C26.7207 8.3701 22.3924 0.47998 14.0007 0.47998C5.60899 0.47998 1.2807 8.3701 1.2807 8.3701Z" stroke="#000042" stroke-width="0.96" stroke-miterlimit="10"/>
<circle cx="14.0007" cy="8.40003" r="3.12" fill="#000042"/>
<path d="M18.8855 15.417L18.8863 15.4186C19.2072 16.028 19.6688 16.474 20.2907 16.7512L18.8855 15.417ZM18.8855 15.417C18.656 14.9852 18.5464 14.526 18.5622 14.0394L18.5622 14.0394M18.8855 15.417L18.5622 14.0394M18.5622 14.0394C18.5707 13.776 18.6416 13.5106 18.7535 13.2238C18.9927 12.6133 19.3151 12.0364 19.6758 11.4557C20.223 10.5766 20.8395 9.74224 21.4947 8.92453M18.5622 14.0394L21.4947 8.92453M21.4947 8.92453C22.0198 9.58596 22.5248 10.2536 22.9902 10.9472L21.4947 8.92453ZM24.1901 13.0979C23.869 12.3486 23.4554 11.6413 22.9904 10.9474L24.1901 13.0979ZM24.1901 13.0979C24.358 13.4906 24.4532 13.8606 24.431 14.2322L24.1901 13.0979ZM23.9674 15.6616C24.2489 15.2309 24.3996 14.7541 24.431 14.2323L23.9674 15.6616ZM23.9674 15.6616C23.6058 16.2144 23.1253 16.6068 22.514 16.8306L23.9674 15.6616ZM22.514 16.8306C21.7614 17.1053 21.0261 17.0781 20.2908 16.7513L22.514 16.8306Z" fill="white" stroke="#000042" stroke-width="0.96"/>
<path d="M12.1667 21.6569L12.1676 21.6585C12.4885 22.2679 12.9501 22.7138 13.572 22.9911L12.1667 21.6569ZM12.1667 21.6569C11.9373 21.2251 11.8276 20.7659 11.8434 20.2793L11.8434 20.2792M12.1667 21.6569L11.8434 20.2792M11.8434 20.2792C11.8519 20.0159 11.9229 19.7504 12.0348 19.4637C12.2739 18.8531 12.5964 18.2763 12.957 17.6956C13.5043 16.8165 14.1208 15.9821 14.776 15.1644M11.8434 20.2792L14.776 15.1644M14.776 15.1644C15.301 15.8258 15.8061 16.4935 16.2715 17.1871L14.776 15.1644ZM17.4713 19.3378C17.1503 18.5884 16.7367 17.8811 16.2716 17.1873L17.4713 19.3378ZM17.4713 19.3378C17.6392 19.7305 17.7345 20.1004 17.7122 20.4721L17.4713 19.3378ZM17.2487 21.9015C17.5302 21.4708 17.6808 20.994 17.7122 20.4722L17.2487 21.9015ZM17.2487 21.9015C16.8871 22.4542 16.4066 22.8466 15.7953 23.0704L17.2487 21.9015ZM15.7952 23.0705C15.0427 23.3452 14.3074 23.3179 13.572 22.9911L15.7952 23.0705Z" fill="white" stroke="#000042" stroke-width="0.96"/>
<path d="M5.9127 10.8698L4.716 8.40601" stroke="#000042" stroke-width="0.96"/>
<path d="M4.40144 12.2348L7.92737 9.0494" stroke="#000042" stroke-width="0.96"/>
<path d="M20.5562 4.28777L21.21 6.94763" stroke="#000042" stroke-width="0.96"/>
<path d="M22.3196 3.26963L18.2045 5.6455" stroke="#000042" stroke-width="0.96"/>
<path d="M6.32071 3.12L8.84071 3.48V5.64" stroke="#000042" stroke-width="0.96"/>
<path d="M9.68069 15.48V12.72H12.3207" stroke="#000042" stroke-width="0.96"/>
</svg>
